<?xml version="1.0" encoding="UTF-8"?>
<svg id="Layer_2" data-name="Layer 2" xmlns="http://www.w3.org/2000/svg" viewBox="0 0 650 650">
  <g id="Layer_1-2" data-name="Layer 1">
    <path d="M518.33,650H131.67c-39.98,0-62.01,0-81.62-9.99-17.36-8.84-31.21-22.69-40.06-40.06C0,580.34,0,558.32,0,518.33V198.33c0-39.98,0-62.01,9.99-81.62,8.85-17.36,22.7-31.22,40.06-40.06,19.61-9.99,41.63-9.99,81.61-9.99h1.67V25c0-13.81,11.19-25,25-25s25,11.19,25,25v41.67H466.67V25c0-13.81,11.19-25,25-25s25,11.19,25,25v41.67h1.67c39.98,0,62.01,0,81.62,9.99,17.36,8.85,31.21,22.7,40.06,40.06,9.99,19.6,9.99,41.63,9.99,81.61v320c0,39.98,0,62.01-9.99,81.62-8.84,17.36-22.7,31.21-40.06,40.06-19.6,9.99-41.63,9.99-81.61,9.99ZM50,250v268.33c0,32.24,0,50,4.54,58.92,4.02,7.89,10.32,14.19,18.21,18.21,8.92,4.54,26.68,4.54,58.92,4.54h386.67c32.24,0,50,0,58.92-4.54,7.89-4.02,14.19-10.32,18.21-18.21,4.54-8.92,4.54-26.68,4.54-58.92V250H50Zm0-50H600v-1.67c0-32.24,0-50-4.54-58.92-4.02-7.89-10.32-14.19-18.21-18.21-8.91-4.54-26.67-4.54-58.92-4.54H131.67c-32.24,0-50,0-58.91,4.54-7.89,4.02-14.19,10.32-18.21,18.21-4.54,8.91-4.54,26.67-4.54,58.92v1.67Zm441.67,316.67H158.33c-13.81,0-25-11.19-25-25v-133.33c0-13.81,11.19-25,25-25H491.67c13.81,0,25,11.19,25,25v133.33c0,13.81-11.19,25-25,25Zm-308.33-50H466.67v-83.33H183.33v83.33Z"/>
  </g>
</svg>