<?xml version="1.0" encoding="UTF-8"?>
<svg id="Layer_2" data-name="Layer 2" xmlns="http://www.w3.org/2000/svg" viewBox="0 0 578.63 755.88">
  <g id="Layer_1-2" data-name="Layer 1">
    <path d="M171.67,702.94h-60c-21.21,0-34,0-46.48-6.36-11.05-5.63-19.86-14.45-25.49-25.49-6.36-12.48-6.36-25.28-6.36-46.48v-255h-8.33c-13.81,0-25-11.19-25-25s11.19-25,25-25h8.33V131.27c0-21.21,0-34.01,6.36-46.48,5.63-11.04,14.44-19.86,25.49-25.49,12.48-6.36,25.28-6.36,46.49-6.36h60c21.21,0,34,0,46.48,6.36,11.05,5.63,19.87,14.45,25.49,25.49,6.36,12.47,6.36,25.27,6.36,46.48v188.33h8.33c13.81,0,25,11.19,25,25s-11.19,25-25,25h-8.33v255c0,21.21,0,34-6.36,46.48-5.63,11.05-14.44,19.86-25.49,25.49-12.48,6.36-25.28,6.36-46.48,6.36Zm-83.88-50.96c2.75,.96,13.49,.96,23.88,.96h60c10.39,0,21.14,0,23.88-.96,1.5-.79,2.7-1.99,3.49-3.5,.96-2.75,.96-13.49,.96-23.88v-255H83.33v255c0,10.39,0,21.14,.96,23.88,.79,1.5,1.99,2.71,3.5,3.49Zm-.06-.02s0,0,0,0c0,0,0,0,0,0Zm107.88,0s0,0,0,0h0ZM83.33,319.61h116.67V131.27c0-10.39,0-21.13-.96-23.88-.79-1.5-1.99-2.71-3.5-3.5-2.75-.96-13.49-.96-23.88-.96h-60c-10.39,0-21.13,0-23.88,.96-1.5,.79-2.71,2-3.5,3.5-.96,2.75-.96,13.49-.96,23.88v188.33Zm.98-212.27s0,0,0,0c0,0,0,0,0,0Zm114.71,0s0,0,0,0c0,0,0,0,0,0ZM471.67,642.71h-60c-21.21,0-34,0-46.48-6.36-11.04-5.63-19.86-14.44-25.49-25.49-6.36-12.48-6.36-25.28-6.36-46.49V291.36c0-21.21,0-34,6.36-46.48,5.63-11.05,14.45-19.86,25.49-25.49,12.48-6.36,25.28-6.36,46.49-6.36h60c21.21,0,34,0,46.48,6.36,11.05,5.63,19.86,14.44,25.49,25.49,6.36,12.48,6.36,25.28,6.36,46.49v273.01c0,21.21,0,34-6.36,46.48-5.63,11.05-14.45,19.87-25.49,25.49-12.48,6.36-25.28,6.36-46.48,6.36Zm-83.88-50.96c2.74,.96,13.49,.96,23.88,.96h60c10.4,0,21.15,0,23.89-.96,1.49-.79,2.7-1.99,3.49-3.49,.96-2.75,.96-13.49,.96-23.88V291.36c0-10.39,0-21.14-.96-23.88-.79-1.5-2-2.7-3.5-3.49-2.75-.96-13.49-.96-23.88-.96h-60c-10.39,0-21.12,0-23.88,.96-1.5,.79-2.71,2-3.5,3.5-.96,2.75-.96,13.49-.96,23.88v273.01c0,10.39,0,21.13,.96,23.88,.79,1.5,1.99,2.71,3.49,3.5Zm107.68,.05s0,0,0,0c0,0,0,0,0,0Zm3.56-3.48h0Zm-114.71-320.9s0,0,0,0c0,0,0,0,0,0Zm111.29-3.41s0,0,0,0c0,0,0,0,0,0Zm-107.87,0s0,0,0,0c0,0,0,0,0,0Z"/>
    <path d="M141.67,102.94c-13.81,0-25-11.19-25-25V25c0-13.81,11.19-25,25-25s25,11.19,25,25v52.94c0,13.81-11.19,25-25,25Z"/>
    <path d="M141.67,755.88c-13.81,0-25-11.19-25-25v-52.94c0-13.81,11.19-25,25-25s25,11.19,25,25v52.94c0,13.81-11.19,25-25,25Z"/>
    <path d="M441.67,695.65c-13.81,0-25-11.19-25-25v-52.94c0-13.81,11.19-25,25-25s25,11.19,25,25v52.94c0,13.81-11.19,25-25,25Z"/>
    <path d="M441.67,263.03c-13.81,0-25-11.19-25-25V91.11c0-13.81,11.19-25,25-25s25,11.19,25,25V238.03c0,13.81-11.19,25-25,25Z"/>
    <path d="M553.63,483.39h-233.33c-13.81,0-25-11.19-25-25s11.19-25,25-25h233.33c13.81,0,25,11.19,25,25s-11.19,25-25,25Z"/>
  </g>
</svg>