<?xml version="1.0" encoding="UTF-8"?>
<svg id="Layer_2" data-name="Layer 2" xmlns="http://www.w3.org/2000/svg" viewBox="0 0 673.99 800">
  <g id="Layer_1-2" data-name="Layer 1">
    <g>
      <path d="M129.91,800c65.37,0,100.07-58.38,110.28-92.87,.16-.54,.31-1.1,.45-1.67,23.78-98.49,61.66-254.59,89.72-368.13h100.4c18.88,0,34.19-15.3,34.19-34.19s-15.31-34.19-34.19-34.19h-83.41c8.98-35.77,15.55-61.25,18.14-69.95l2.87-9.73c10.6-36.17,35.42-120.89,73.79-120.89,35.59,0,40.89,54.81,41.14,57.46,1.52,18.77,17.88,32.94,36.7,31.32,18.83-1.44,32.92-17.89,31.46-36.71-3.19-41.67-30.18-120.46-109.31-120.46-89.6,0-123.23,114.84-139.39,170.04l-2.75,9.31c-3.28,10.92-11.9,44.58-23.14,89.6h-119.61c-18.88,0-34.19,15.3-34.19,34.19s15.3,34.19,34.19,34.19h102.68c-35.1,142.37-80.46,330.16-85.45,350.83-1.86,5.42-15.88,43.46-44.55,43.46-43.79,0-62.74-61.46-62.89-61.92-5.25-18.13-24.17-28.62-42.35-23.33-18.13,5.26-28.58,24.22-23.33,42.35,11.96,41.32,52.49,111.27,128.55,111.27Z"/>
      <path d="M636.91,711.84c20.15,0,37.08-14.31,37.08-37.09,0-10.58-4.23-20.13-13.24-30.73l-70.99-81.59,68.88-80.53c6.35-7.95,11.11-16.43,11.11-27.55,0-20.15-16.43-34.98-37.63-34.98-14.3,0-25.41,9-34.97,20.68l-53.5,69.91-52.45-69.92c-10.61-13.23-21.72-20.67-37.61-20.67-20.15,0-37.09,14.32-37.09,37.1,0,10.58,4.24,20.13,13.23,30.71l66.23,76.3-72.59,85.82c-6.89,7.95-11.11,16.43-11.11,27.55,0,20.15,16.43,34.97,37.6,34.97,14.31,0,25.43-9,34.97-20.67l57.2-75.22,57.22,75.22c10.63,13.26,21.76,20.68,37.65,20.68Z"/>
    </g>
  </g>
</svg>