<?xml version="1.0" encoding="UTF-8"?>
<svg id="Layer_2" data-name="Layer 2" xmlns="http://www.w3.org/2000/svg" viewBox="0 0 655 655">
  <g id="Layer_1-2" data-name="Layer 1">
    <path d="M627.5,655H134.17c-40.37,0-62.61,0-82.75-10.26-17.83-9.08-32.06-23.32-41.15-41.15C0,583.44,0,561.2,0,520.83V27.5C0,12.31,12.31,0,27.5,0s27.5,12.31,27.5,27.5v493.33c0,30.81,0,49.4,4.27,57.78,3.78,7.42,9.7,13.34,17.11,17.12,8.38,4.27,26.98,4.27,57.78,4.27h493.33c15.19,0,27.5,12.31,27.5,27.5s-12.31,27.5-27.5,27.5ZM160.82,455c-6.21,0-12.45-2.09-17.59-6.38-11.67-9.72-13.24-27.06-3.52-38.73l166.67-200c4.95-5.94,12.16-9.52,19.88-9.87,7.71-.34,15.23,2.56,20.69,8.03l112.04,112.04,147.39-176.87c9.72-11.67,27.06-13.24,38.73-3.52,11.67,9.72,13.24,27.06,3.52,38.73l-166.67,200c-4.95,5.94-12.16,9.52-19.88,9.87-7.72,.36-15.23-2.56-20.69-8.03l-112.04-112.04-147.39,176.87c-5.44,6.53-13.26,9.9-21.14,9.9Z"/>
  </g>
</svg>