<svg clip-rule="evenodd" fill-rule="evenodd" image-rendering="optimizeQuality" shape-rendering="geometricPrecision" text-rendering="geometricPrecision" version="1.1" viewBox="0 0 512 512" xmlns="http://www.w3.org/2000/svg">
 <path d="m512 256c0 70.67-28.66 134.68-74.98 181.02-46.33 46.32-110.34 74.98-181.02 74.98s-134.69-28.66-181.02-74.98c-46.32-46.34-74.98-110.35-74.98-181.02 0-70.68 28.66-134.69 74.98-181.02 46.33-46.32 110.34-74.98 181.02-74.98 70.67 0 134.69 28.66 181.02 74.98 46.32 46.33 74.98 110.34 74.98 181.02zm-160.23 21.5h-43.38v67.93c0 7.63-6.27 13.9-13.91 13.9h-76.98c-7.62 0-13.9-6.25-13.9-13.9v-67.92h-43.41c-16.71 0-25.11-19.9-14.05-31.96l96.01-112.05c7.54-9.12 21.31-9.12 29.04-0.37l94.96 112.8c10.83 12.43 1.66 31.55-14.38 31.57z"/>
</svg>
