<svg clip-rule="evenodd" fill-rule="evenodd" image-rendering="optimizeQuality" shape-rendering="geometricPrecision" text-rendering="geometricPrecision" version="1.1" viewBox="0 0 512 512" xmlns="http://www.w3.org/2000/svg">
 <path d="m512 256c0 70.67-28.66 134.68-74.99 181.01s-110.34 74.99-181.01 74.99c-70.68 0-134.69-28.66-181.01-74.99-46.33-46.33-74.99-110.34-74.99-181.01 0-70.68 28.66-134.69 74.99-181.01 46.32-46.33 110.33-74.99 181.01-74.99 70.67 0 134.68 28.66 181.01 74.99 46.33 46.32 74.99 110.33 74.99 181.01zm-204.29-21.97v-67.04c0-7.53-6.19-13.72-13.73-13.72h-75.96c-7.53 0-13.72 6.17-13.72 13.72v67.03h-42.84c-16.5 0-24.78 19.64-13.86 31.54l94.74 110.57c7.44 9 21.03 9.01 28.66 0.37l93.71-111.31c10.69-12.27 1.64-31.14-14.19-31.16h-42.81zm105.52 179.2c40.22-40.24 65.11-95.84 65.11-157.23 0-61.4-24.89-117-65.11-157.23-40.24-40.23-95.84-65.11-157.23-65.11-61.4 0-117 24.88-157.23 65.11s-65.11 95.83-65.11 157.23c0 61.39 24.88 116.99 65.11 157.23 40.23 40.22 95.83 65.11 157.23 65.11 61.39 0 116.99-24.89 157.23-65.11z" fill-rule="nonzero"/>
</svg>
