<svg width="800px" height="800px" version="1.1" viewBox="0 0 32 32" xmlns="http://www.w3.org/2000/svg">
 <defs>
  <clipPath id="clipPath1">
   <path d="m6.1885 15.281v-9.0209h3.1721q1.0764 0 1.6765 0.65299 0.63822 0.71345 0.63822 1.7171 0 0.58043-0.22862 1.0158-0.21909 0.42323-0.743 0.84646 1.1812 0.87065 1.1812 2.1887 0 0.53206-0.19051 1.0762-0.19051 0.53206-0.51439 0.87065-0.60964 0.65299-1.7908 0.65299zm1.467-7.4731v2.0315h1.5813q1.0383 0 1.0383-1.0158 0-1.0158-1.0383-1.0158zm0 3.5793v2.3459h1.7432q1.0859 0 1.0859-1.1609 0-1.185-1.0859-1.185zm9.6876-5.1271h1.467v6.1066q0 1.4874-0.69538 2.2854-0.80016 0.91902-2.1242 0.91902t-2.1242-0.91902q-0.69538-0.79809-0.69538-2.2854v-6.1066h1.4574v6.1066q0 1.6083 1.3622 1.6083 1.3526 0 1.3526-1.6083zm6.2108 5.6834v3.3375h-1.467v-3.3375l-2.3528-5.6834h1.6289l1.4479 3.9784 1.3622-3.9784h1.6384z" display="none" stroke-width=".041213" style="white-space:pre" aria-label="BUY"/>
   <path class="powerclip" d="m-5-5h42v42.001h-42zm11.189 20.281h3.2006q1.1812 0 1.7908-0.65299 0.32387-0.33859 0.51439-0.87065 0.19051-0.54416 0.19051-1.0762 0-1.3181-1.1812-2.1887 0.52391-0.42323 0.743-0.84646 0.22862-0.43532 0.22862-1.0158 0-1.0037-0.63822-1.7171-0.60012-0.65299-1.6765-0.65299h-3.1721zm1.467-7.4731v2.0315h1.5813q1.0383 0 1.0383-1.0158 0-1.0158-1.0383-1.0158zm0 3.5793v2.3459h1.7432q1.0859 0 1.0859-1.1609 0-1.185-1.0859-1.185zm9.6876-5.1271v6.1066q0 1.6083-1.3526 1.6083-1.3622 0-1.3622-1.6083v-6.1066h-1.4574v6.1066q0 1.4874 0.69538 2.2854 0.80016 0.91902 2.1242 0.91902t2.1242-0.91902q0.69538-0.79809 0.69538-2.2854v-6.1066zm6.2108 5.6834 2.2576-5.6834h-1.6384l-1.3622 3.9784-1.4479-3.9784h-1.6289l2.3528 5.6834v3.3375h1.467z" stroke-width=".041213" style="white-space:pre"/>
  </clipPath>
 </defs>
 <g clip-path="url(#clipPath1)" fill="none" fill-rule="evenodd">
  <g id="Icon-Set" transform="translate(-360 -255)" fill="#000">
   <path d="m386.67 255h-21.334c-2.945 0-5.333 2.371-5.333 5.297v12.33c0 2.924 2.055 4.813 5 4.813h6.639l4.361 9.561 4.361-9.561h6.639c2.945 0 5-1.889 5-4.813v-12.33c0-2.926-2.388-5.297-5.333-5.297z"/>
  </g>
 </g>
</svg>
