<svg width="800px" height="800px" version="1.1" viewBox="0 0 32 32" xmlns="http://www.w3.org/2000/svg">
 <g fill="none" fill-rule="evenodd">
  <g id="Icon-Set" transform="translate(-360 -255)" fill="#000">
   <path d="m390 272.44c0 1.463-1.527 3-3 3h-8l-3 7.28-3-7.28h-8c-1.473 0-3-1.537-3-3v-12.44c0-1.463 1.527-3 3-3h22c1.473 0 3 1.537 3 3zm-3.333-17.44h-21.334c-2.945 0-5.333 2.371-5.333 5.297v12.33c0 2.924 2.055 4.813 5 4.813h6.639l4.361 9.561 4.361-9.561h6.639c2.945 0 5-1.889 5-4.813v-12.33c0-2.926-2.388-5.297-5.333-5.297z"/>
  </g>
 </g>
 <path transform="matrix(.036579 0 0 .046434 1.842 -2.5284)" d="m118.83 383.54v-194.27h86.719q29.427 0 45.833 14.063 17.448 15.365 17.448 36.979 0 12.5-6.25 21.875-5.9896 9.1146-20.313 18.229 32.292 18.75 32.292 47.135 0 11.458-5.2083 23.177-5.2083 11.458-14.063 18.75-16.667 14.063-48.958 14.063zm40.104-160.94v43.75h43.229q28.385 0 28.385-21.875t-28.385-21.875zm0 77.083v50.521h47.656q29.688 0 29.688-25 0-25.521-29.688-25.521zm264.84-110.42h40.104v131.51q0 32.031-19.01 49.219-21.875 19.792-58.073 19.792-36.198 0-58.073-19.792-19.01-17.188-19.01-49.219v-131.51h39.844v131.51q0 34.635 37.24 34.635 36.979 0 36.979-34.635zm169.79 122.4v71.875h-40.104v-71.875l-64.323-122.4h44.531l39.583 85.677 37.24-85.677h44.792z" style="white-space:pre" aria-label="BUY"/>
</svg>
