<svg
   style="width: 46px; height: 46px"
   viewBox="-1.6 -1.6 19.2 19.2"
   xmlns="http://www.w3.org/2000/svg">
  <path
     fill-rule="evenodd"
     d="M 15,2 C 15,1.4477153 14.552285,1 14,1 H 2 C 1.4477153,1 1,1.4477153 1,2 v 12 c 0,0.552285 0.4477153,1 1,1 h 12 c 0.552285,0 1,-0.447715 1,-1 z M 0,2 C 0,0.8954305 0.8954305,0 2,0 h 12 c 1.104569,0 2,0.8954305 2,2 v 12 c 0,1.104569 -0.895431,2 -2,2 H 2 C 0.8954305,16 0,15.104569 0,14 Z"
     id="path2"
     style="fill:#000000"
     sodipodi:nodetypes="ssssssssssssssssss" />
  <path
     d="m 11.500447,8.5 c 0.666666,0 0.666666,-1 0,-1 H 4.444275 c -0.1571231,0 -0.224029,0.07336 -0.2978281,0.1459999 -0.1958579,0.195364 -0.1958579,0.5126361 0,0.7080001 0,0 0.113806,0.146 0.320186,0.146 z"
     style="fill:#000000;fill-rule:evenodd"
     id="path887"
     sodipodi:nodetypes="sssccss" />
</svg>
