<svg fill="none" version="1.1" viewBox="0 0 190 17" xmlns="http://www.w3.org/2000/svg">
 <path d="m43.396 0.59241c-0.7309 0.051305-1.5918 0.17499-2.2547 0.32392-2.1099 0.47416-3.3993 1.5157-3.8627 3.1203-0.109 0.3774-0.1244 0.54887-0.1238 1.3791 6e-4 0.74536 0.0216 1.0234 0.0982 1.3002 0.4428 1.6009 1.6968 2.6699 3.7259 3.1765 1.1816 0.29498 1.7883 0.35498 4.6059 0.45548 2.0714 0.0739 2.5496 0.1592 2.8944 0.5159 0.1672 0.1728 0.1842 0.2199 0.1842 0.5095 0 0.2759-0.0226 0.3471-0.167 0.5259-0.3831 0.4745-1.0248 0.6271-2.6414 0.6279-1.2356 7e-4 -1.652-0.0663-2.2267-0.3582-0.4595-0.2334-0.8225-0.7045-0.8255-1.0714-7e-4 -0.0783-0.0165-0.2186-0.0351-0.312l-0.0338-0.1698-5.796 0.028 0.0135 0.596c0.0559 2.4745 1.3671 3.9875 4.1478 4.7862 0.5083 0.1459 1.1006 0.2589 1.9456 0.3711 1.041 0.1381 4.3954 0.1371 5.4583-0.0017 3.0264-0.3952 4.6035-1.2594 5.479-3.0023 0.486-0.9676 0.5731-2.857 0.1858-4.0319-0.4151-1.2591-1.4554-2.1581-3.0167-2.6069-1.232-0.35415-2.0617-0.45086-4.7558-0.55439-2.1935-0.08425-2.5359-0.11513-3.0031-0.27067-0.3472-0.11561-0.5907-0.39012-0.5907-0.66577 0-0.59589 0.7225-0.83308 2.567-0.84283 1.1266-0.0059 1.6273 0.05748 2.1727 0.275 0.5118 0.20414 0.879 0.66838 0.8804 1.113 3e-4 0.08912 0.1729 0.09481 2.8646 0.09481h2.8642v-0.50758c0-1.3285-0.3904-2.2893-1.2623-3.107-0.6484-0.60807-1.394-0.96889-2.6654-1.2899-1.3131-0.33156-2.1149-0.41239-4.2867-0.43238-1.0552-0.009752-2.1982 0.00195-2.5401 0.02595zm41.397-0.019882c-2.5384 0.21996-4.3815 1.0026-5.4093 2.2969-0.3665 0.46169-0.8156 1.3329-0.9355 1.8149-0.1091 0.4385-0.1943 1.1574-0.1943 1.6379v0.39468l5.5934-0.02807 0.0395-0.35886c0.1335-1.2119 0.8959-1.6813 2.7294-1.6807 1.6485 5.9e-4 2.3381 0.26026 2.3381 0.88042 0 0.55466-0.3337 0.72749-2.594 1.3433-2.0676 0.56322-2.4234 0.6661-3.1345 0.90637-2.743 0.92664-4.1142 1.915-4.8204 3.4745-0.3161 0.6982-0.3725 1.1385-0.4061 3.1687l-0.0303 1.8284h17.039l-0.0141-2.2348-0.0141-2.2347-11.448-0.0542 0.3738-0.1193c0.823-0.2628 1.672-0.457 4.2107-0.9634 1.5573-0.3107 2.1828-0.4642 3.0264-0.74275 1.0438-0.34462 1.9375-0.83703 2.4496-1.3496 0.8249-0.82555 1.1382-1.7663 1.0718-3.2178-0.0627-1.3701-0.4363-2.2291-1.3462-3.0954-0.8674-0.82576-1.9282-1.258-3.7905-1.5445-0.5854-0.090042-1.0372-0.11198-2.6-0.12601-1.0403-0.009319-2.0009-0.007531-2.1347 0.004063zm-84.793 1.5612v1.4856l1.5808 0.02102c1.536 0.02048 1.6042 0.02606 2.4121 0.19699 0.4572 0.0967 0.85993 0.16486 0.89495 0.15137 0.03502-0.01344 0.09209-0.11957 0.12678-0.23572 0.13787-0.46132 0.63603-0.856 1.2435-0.98521 0.34273-0.07286 1.5563-0.07655 2.3077-0.00699 0.29723 0.02753 1.0025 0.06605 1.5672 0.08555 1.1061 0.0383 1.5134-0.013 1.9737-0.2484 0.1183-0.06046 0.215-0.08874 0.215-0.06279 0 0.08246-0.2985 0.46332-0.5061 0.64589-0.4645 0.40833-0.9354 0.55732-2.344 0.74157-1.3205 0.17277-1.4728 0.21248-1.6953 0.44263-0.15845 0.16388-0.17904 0.21892-0.17569 0.46911 0.00308 0.22998 0.07566 0.44344 0.38537 1.1328 0.4591 1.022 0.58296 1.4789 0.53 1.9548-0.0207 0.18588-0.05091 0.46012-0.06712 0.60943-0.02324 0.21389 0.02383 0.47795 0.22222 1.2461 0.25968 1.0056 0.42164 1.4361 0.65614 1.7443 0.38807 0.5101 0.38613 1.0301-0.00687 1.8075-0.1918 0.3795-0.7226 0.9013-1.141 1.1219-0.61452 0.3238-1.0924 0.2887-1.4578-0.107-0.5669-0.6138-0.61149-0.6354-1.9872-0.9624-0.79513-0.189-1.2341-0.3863-1.7041-0.766-0.18078-0.146-0.35458-0.2655-0.38625-0.2655-0.22563 0-1.8731 0.9491-2.4143 1.3909l-0.22968 0.1875v2.3223h5.0128c4.0776 0 5.1387-0.0149 5.688-0.0799 1.3001-0.1539 2.2771-0.4318 3.3233-0.9453 2.2666-1.1126 3.6751-3.0255 4.1116-5.5843 0.1251-0.73344 0.0808-2.5366-0.0788-3.2025-0.3438-1.4355-0.9704-2.5455-1.9845-3.5154-1.2693-1.2141-2.956-1.929-5.1828-2.1965-0.5212-0.062628-1.6536-0.078014-5.7691-0.078393l-5.1205-4.88e-4v1.4856zm23.513-1.147c-0.1201 0.27798-0.212 0.48136-3.4476 7.6254-1.4102 3.1138-2.7672 6.1067-3.0156 6.6507l-0.4515 0.9892 5.5597-0.0281 0.5535-1.246 0.5535-1.2461h7.3487l0.5619 1.2596 0.5618 1.2596h2.9412c1.6176 0 2.9298-0.0182 2.9161-0.0406-0.0204-0.0332-1.0748-2.2835-1.8468-3.9414-0.0971-0.2085-0.2911-0.623-0.4312-0.921-0.14-0.2979-0.6874-1.4681-1.2165-2.6004-0.5291-1.1323-1.071-2.2903-1.2041-2.5734-0.1332-0.28307-0.7038-1.502-1.268-2.7088-0.5642-1.2068-1.0826-2.3099-1.152-2.4515l-0.1261-0.25734h-6.7376l-0.0994 0.23025zm31.988 7.517v7.7472h5.4583v-5.7427h7.1336v5.7427h5.4583v-15.494h-5.4583v5.3093h-7.1336v-5.3093h-5.4583v7.7473zm42.64-5.526v2.2212h5.7826v11.052h5.458v-11.052h5.837v-4.4425h-17.078v2.2212zm18.267 5.5242v7.7491h5.457l0.028-4.7946 2.648 0.0017c2.315 0.0016 2.694 0.0135 3.014 0.0944 0.508 0.1283 0.77 0.2754 0.96 0.5373 0.297 0.4117 0.335 0.6376 0.374 2.2109 0.031 1.3101 0.045 1.4581 0.151 1.693l0.116 0.2573h5.518v-0.2369c0-0.1303-0.053-0.3558-0.119-0.5011-0.112-0.2495-0.121-0.3671-0.156-2.1062-0.041-2.0222-0.06-2.1588-0.401-2.8731-0.199-0.4187-0.706-1.0132-1.087-1.2765-0.131-0.0901-0.389-0.23914-0.574-0.33113-0.299-0.14839-0.325-0.17413-0.234-0.22711 1.127-0.65749 1.805-1.4469 2.06-2.3961 0.131-0.48965 0.159-1.4698 0.06-2.0791-0.121-0.73556-0.446-1.3771-0.969-1.9129-0.705-0.72217-1.549-1.096-3.173-1.405-0.614-0.1168-0.703-0.11848-7.147-0.13571l-6.526-0.017445v7.7492zm26.026-7.5426c-0.109 0.22738-1.591 3.4928-1.95 4.2939-0.126 0.28307-0.491 1.0876-0.811 1.7878s-0.746 1.6388-0.946 2.0858c-0.201 0.44696-0.625 1.3856-0.944 2.0858-0.318 0.7002-0.629 1.3829-0.69 1.5169-0.06 0.1341-0.347 0.768-0.637 1.4086-0.29 0.6407-0.626 1.3784-0.747 1.6394l-0.22 0.4745 5.575-0.0281 0.548-1.2589 0.547-1.2589 7.343 0.0257 1.136 2.5192h5.865l-0.208-0.4469c-0.254-0.5494-0.508-1.0919-0.841-1.8014-0.14-0.298-0.687-1.4682-1.216-2.6005s-1.088-2.3269-1.243-2.6546c-0.154-0.32776-0.702-1.498-1.217-2.6005-0.516-1.1025-1.291-2.7603-1.724-3.684l-0.787-1.6795-3.368-0.013924-3.368-0.013977-0.097 0.2036zm15.1 7.5418v7.7499h4.878c4.822-1e-4 5.468-0.0189 6.633-0.1931 3.52-0.5262 5.701-2.0466 6.589-4.5913 0.346-0.9922 0.403-1.4249 0.407-3.0441 3e-3 -1.581-0.037-1.9167-0.331-2.7901-0.374-1.1136-1.224-2.2653-2.234-3.0284-1.063-0.80252-2.777-1.4132-4.836-1.7223-0.512-0.076931-1.319-0.0921-5.85-0.10992l-5.256-0.020642v7.75zm19.564 0.00271v7.7472h15.025l-0.014-2.0722-0.014-2.0723-4.77-0.0138-4.769-0.0139v-1.5157l9.106-0.0277 0.014-2.1264 0.015-2.1264h-9.135v-1.4086h9.403v-4.1174h-14.861v7.7473zm-49.206-3.4169c0.482 0.15299 0.73 0.46651 0.73 0.92382 0 0.35643-0.107 0.60347-0.333 0.77267-0.378 0.28334-0.395 0.28475-3.505 0.28475h-2.891l-0.015-1.047-0.014-1.047 2.906 0.02205c2.142 0.01631 2.963 0.04015 3.122 0.09075zm39.262 0.02487c1.606 0.2556 2.497 0.77499 2.957 1.7232 0.213 0.44035 0.285 0.86011 0.284 1.6689-1e-3 1.0668-0.223 1.7338-0.773 2.3164-0.333 0.3529-0.578 0.5036-1.178 0.724-0.925 0.3395-1.279 0.3819-3.438 0.4113l-1.959 0.0267v-7.0157l1.797 0.03175c1.191 0.02107 1.97 0.05932 2.31 0.1135zm-20.427 2.3898c0.481 1.0727 0.896 2.0052 0.922 2.0723l0.047 0.1219h-1.869c-1.757 0-1.867-0.00569-1.834-0.09481 0.179-0.49139 1.796-4.1133 1.823-4.0858 0.02 0.01983 0.43 0.91374 0.911 1.9864zm-119.33-0.96163c0.2509 0.55872 0.6702 1.4889 0.9317 2.0671 0.2615 0.57822 0.4754 1.0598 0.4754 1.07 0 0.0103-0.8416 0.0187-1.8702 0.0187-1.7589 0-1.8681-0.00564-1.8341-0.09481 0.1562-0.40936 1.783-4.0768 1.8084-4.0768 0.0178 0 0.2378 0.45715 0.4888 1.0158z" clip-rule="evenodd" fill="#fff" fill-rule="evenodd"/>
</svg>
