<svg
   width="46.08"
   height="46.08"
   viewBox="-1.6 -1.6 19.2 19.2"
   xmlns="http://www.w3.org/2000/svg">
  <path
     fill-rule="evenodd"
     d="M 15,2 A 1,-1 0 0 0 14,1 H 2 A 1,-1 0 0 0 1,2 v 12 a 1,-1 0 0 0 1,1 h 12 a 1,-1 0 0 0 1,-1 z M 0,2 A 2,-2 0 0 1 2,0 h 12 a 2,-2 0 0 1 2,2 v 12 a 2,-2 0 0 1 -2,2 H 2 A 2,-2 0 0 1 0,14 Z m 8.5,2.5 a 0.5,-0.5 0 0 0 -1,0 v 5.793 L 5.354,8.146 A 0.5006316,-0.5006316 0 1 0 4.646,8.854 l 3,3 a 0.5,-0.5 0 0 0 0.708,0 l 3,-3 A 0.5006316,-0.5006316 0 0 0 10.646,8.146 L 8.5,10.293 Z"
     id="path2"
     style="fill:#000000" />
</svg>
