<svg style="height:46px;width:46px" version="1.1" viewBox="-1.6 -1.6 19.2 19.2" xmlns="http://www.w3.org/2000/svg">
 <g fill-rule="evenodd">
  <path d="m15 2c0-0.55228-0.44772-1-1-1h-12c-0.55228 0-1 0.44772-1 1v12c0 0.55228 0.44772 1 1 1h12c0.55228 0 1-0.44772 1-1zm-15 0c0-1.1046 0.89543-2 2-2h12c1.1046 0 2 0.89543 2 2v12c0 1.1046-0.89543 2-2 2h-12c-1.1046 0-2-0.89543-2-2z"/>
  <path d="m4.4449 4.097c-0.01964 0-0.037678 0.0018-0.054687 0.0039-0.017011 0.0022-0.034068 0.0058-0.048828 0.0098-0.014761 4e-3 -0.028126 0.0081-0.041016 0.01367-0.012889 0.0056-0.025711 0.01268-0.037109 0.01953-0.022796 0.01371-0.041442 0.02783-0.060547 0.04492s-0.038191 0.03653-0.056641 0.05469c-0.024482 0.02442-0.046092 0.05037-0.064453 0.07813-0.018362 0.02775-0.032681 0.05776-0.044922 0.08789s-0.021223 0.06023-0.027344 0.0918c-0.00612 0.03156-0.00977 0.06366-0.00977 0.0957 0 8e-3 -4.378e-4 0.01543 0 0.02344v1.2988c0 0.02083 6.41e-5 0.04102 0.00195 0.06055 0.00189 0.01953 0.0061 0.03841 0.00977 0.05664 0.00366 0.01823 0.00836 0.03581 0.013672 0.05273 0.00531 0.01693 0.010742 0.0332 0.017578 0.04883 0.013672 0.03125 0.029785 0.0599 0.048828 0.08594s0.041016 0.04948 0.064453 0.07031 0.049316 0.03906 0.076172 0.05469c0.026855 0.01563 0.054687 0.02865 0.083984 0.03906 0.029297 0.01042 0.059082 0.01823 0.089844 0.02344 0.030762 0.0052 0.0625 0.0078 0.09375 0.0078s0.062988-0.0026 0.09375-0.0078 0.060547-0.01302 0.089844-0.02344 0.057129-0.02344 0.083984-0.03906c0.026855-0.01563 0.052734-0.03385 0.076172-0.05469 0.023437-0.02083 0.04541-0.04427 0.064453-0.07031s0.035156-0.05469 0.048828-0.08594c0.00684-0.01563 0.012268-0.0319 0.017578-0.04883s0.01001-0.0345 0.013672-0.05273c0.00366-0.01823 0.00787-0.03711 0.00977-0.05664 0.00189-0.01953 0.00195-0.03971 0.00195-0.06055v-0.82227h6v0.98633c0 0.02083 2e-3 0.04102 0.0039 0.06055s0.0042 0.03841 0.0078 0.05664c0.0037 0.01823 0.0084 0.03581 0.01367 0.05273 0.0053 0.01693 0.01074 0.0332 0.01758 0.04883 0.01367 0.03125 0.03174 0.0599 0.05078 0.08594s0.03906 0.04948 0.0625 0.07031 0.04932 0.03906 0.07617 0.05469c0.02686 0.01563 0.05469 0.02865 0.08399 0.03906 0.0293 0.01042 0.06104 0.01823 0.0918 0.02344 0.03076 0.0052 0.06055 0.0078 0.0918 0.0078s0.06299-0.0026 0.09375-0.0078 0.06055-0.01302 0.08984-0.02344c0.0293-0.01042 0.05908-0.02344 0.08594-0.03906 0.02686-0.01563 0.05078-0.03385 0.07422-0.05469 0.02344-0.02083 0.04541-0.04427 0.06445-0.07031s0.03516-0.05469 0.04883-0.08594c0.0068-0.01563 0.01422-0.0319 0.01953-0.04883 0.0053-0.01693 0.01001-0.0345 0.01367-0.05273 0.0037-0.01823 0.0059-0.03711 0.0078-0.05664s2e-3 -0.03971 2e-3 -0.06055v-1.4629c3.25e-4 -0.0078 0-0.01563 0-0.02344 0-0.03125-0.0026-0.06299-0.0078-0.09375s-0.01302-0.06055-0.02344-0.08984c-0.01042-0.0293-0.02344-0.05713-0.03906-0.08398-0.01563-0.02685-0.03385-0.05273-0.05469-0.07617-0.02083-0.02344-0.04427-0.04541-0.07031-0.06445s-0.05469-0.03516-0.08594-0.04883c-0.01563-0.0068-0.0319-0.01227-0.04883-0.01758-0.01693-0.0053-0.0345-0.01001-0.05273-0.01367-0.01823-0.0037-0.03711-0.0059-0.05664-0.0078s-0.03971-0.0039-0.06055-0.0039h-6.5z"/>
  <path d="m11.555 11.903c0.01964 0 0.03768-0.0018 0.05469-0.0039 0.01701-0.0022 0.03407-0.0058 0.04883-0.0098s0.02813-0.0081 0.04102-0.01367c0.01289-0.0056 0.02571-0.01268 0.03711-0.01953 0.0228-0.01371 0.04144-0.02783 0.06055-0.04492 0.0191-0.01709 0.03819-0.03653 0.05664-0.05469 0.02448-0.02442 0.04609-0.05037 0.06445-0.07813 0.01836-0.02775 0.03268-0.05776 0.04492-0.08789s0.02122-0.06023 0.02734-0.0918c0.0061-0.03156 0.0098-0.06366 0.0098-0.0957 0-8e-3 4.38e-4 -0.01543 0-0.02344v-1.2988c0-0.02083-6.4e-5 -0.04102-2e-3 -0.06055-0.0019-0.01953-0.0061-0.03841-0.0098-0.05664s-0.0084-0.03581-0.01367-0.05273c-0.0053-0.01693-0.01074-0.0332-0.01758-0.04883-0.01367-0.03125-0.02979-0.0599-0.04883-0.08594s-0.04102-0.04948-0.06445-0.07031c-0.02344-0.02083-0.04932-0.03906-0.07617-0.05469s-0.05469-0.02865-0.08398-0.03906c-0.0293-0.01042-0.05908-0.01823-0.08984-0.02344-0.03076-0.0052-0.0625-0.0078-0.09375-0.0078s-0.06299 0.0026-0.09375 0.0078-0.06055 0.01302-0.08984 0.02344c-0.0293 0.01042-0.05713 0.02344-0.08398 0.03906-0.02685 0.01563-0.05273 0.03385-0.07617 0.05469-0.02344 0.02083-0.04541 0.04427-0.06445 0.07031s-0.03516 0.05469-0.04883 0.08594c-0.0068 0.01563-0.01227 0.0319-0.01758 0.04883-0.0053 0.01693-0.01001 0.0345-0.01367 0.05273-0.0037 0.01823-0.0079 0.03711-0.0098 0.05664s-0.0019 0.03971-0.0019 0.06055v0.82227h-6v-0.98633c0-0.02083-2e-3 -0.04102-0.0039-0.06055s-0.0042-0.03841-0.0078-0.05664c-0.0037-0.01823-0.0084-0.03581-0.01367-0.05273-0.0053-0.01693-0.01074-0.0332-0.01758-0.04883-0.01367-0.03125-0.03174-0.0599-0.05078-0.08594s-0.03906-0.04948-0.0625-0.07031-0.04932-0.03906-0.07617-0.05469c-0.02686-0.01563-0.05469-0.02865-0.08399-0.03906-0.0293-0.01042-0.06104-0.01823-0.0918-0.02344-0.03076-0.0052-0.06055-0.0078-0.0918-0.0078s-0.06299 0.0026-0.09375 0.0078-0.06055 0.01302-0.08984 0.02344c-0.0293 0.01042-0.05908 0.02344-0.08594 0.03906-0.02686 0.01563-0.05078 0.03385-0.07422 0.05469-0.02344 0.02083-0.04541 0.04427-0.06445 0.07031s-0.03516 0.05469-0.04883 0.08594c-0.0068 0.01563-0.01422 0.0319-0.01953 0.04883-0.0053 0.01693-0.01001 0.03451-0.01367 0.05273-0.0037 0.01823-0.0059 0.03711-0.0078 0.05664s-2e-3 0.03971-2e-3 0.06055v1.4629c-3.25e-4 0.0078 0 0.01563 0 0.02344 0 0.03125 0.0026 0.06299 0.0078 0.09375s0.01302 0.06055 0.02344 0.08984c0.01042 0.0293 0.02344 0.05713 0.03906 0.08398 0.01563 0.02685 0.03385 0.05273 0.05469 0.07617 0.02083 0.02344 0.04427 0.04541 0.07031 0.06445s0.05469 0.03516 0.08594 0.04883c0.01563 0.0068 0.0319 0.01227 0.04883 0.01758 0.01693 0.0053 0.0345 0.01001 0.05273 0.01367 0.01823 0.0037 0.03711 0.0059 0.05664 0.0078s0.03971 0.0039 0.06055 0.0039h6.5z"/>
 </g>
</svg>
