<svg width="46.08" height="46.08" aria-hidden="true" version="1.1" viewBox="-51.2 -51.2 614.4 614.4"><g stroke-width="30.155"><rect x="14.757" y="240.92" width="482.49" height="30.155" rx="15.078"/><rect x="14.757" y="147" width="482.49" height="30.155" rx="15.078"/><rect x="14.757" y="334.84" width="482.49" height="30.155" rx="15.078"/></g ><g transform="translate(5.937 -288.34)"><path d="m23.904 712.34c-8.3532 0-15.078 6.7252-15.078 15.078s6.7249 15.078 15.078 15.078h173.93c-0.65295-3.3651-2.0312-6.4697-2.0312-10.026 0-7.1393 1.5573-13.888 4.0625-20.13zm276.35 0c2.5051 6.2423 4.0365 12.991 4.0365 20.13 0 3.5554-1.3526 6.6618-2.0052 10.026h173.93c8.3532 0 15.078-6.7252 15.078-15.078s-6.7249-15.078-15.078-15.078z"/><path d="m250.06 759.97c17.965 0 32.545-14.58 32.545-32.545 0-17.965-14.58-32.545-32.545-32.545-17.965 0-32.545 14.58-32.545 32.545 0 17.965 14.58 32.545 32.545 32.545zm0 21.697c-29.964 0-54.242-24.279-54.242-54.242 0-29.964 24.279-54.242 54.242-54.242 29.964 0 54.242 24.279 54.242 54.242 0 29.964-24.279 54.242-54.242 54.242z" stroke-width="21.697"/></g ><path d="m144.05 18.672c-24.694 0-45.285 16.595-51.849 39.167h-62.37c-8.3532 0-15.078 6.7252-15.078 15.078s6.7249 15.078 15.078 15.078h62.37c6.5639 22.572 27.155 39.167 51.849 39.167s45.285-16.595 51.849-39.167h120.03c6.5639 22.572 27.155 39.167 51.849 39.167 24.694 0 45.285-16.595 51.849-39.167h62.552c8.3532 0 15.078-6.7252 15.078-15.078s-6.7249-15.078-15.078-15.078h-62.552c-6.5639-22.572-27.155-39.167-51.849-39.167-24.694 0-45.285 16.595-51.849 39.167h-120.03c-6.5639-22.572-27.155-39.167-51.849-39.167zm0 21.693c17.965 0 32.552 14.587 32.552 32.552 0 17.965-14.587 32.552-32.552 32.552-17.965 1e-5 -32.552-14.587-32.552-32.552 0-17.965 14.587-32.552 32.552-32.552zm223.72 0c17.965 0 32.552 14.587 32.552 32.552 0 17.965-14.587 32.552-32.552 32.552-17.965 0-32.552-14.587-32.552-32.552 0-17.965 14.587-32.552 32.552-32.552z" stroke-width="30.155"/></svg>
