<svg xmlns="http://www.w3.org/2000/svg" viewBox="0 0 28 28" width="28" height="28"><g fill="currentColor" fill-rule="evenodd"><path fill-rule="nonzero" d="M23.002 23C23 23 23 18.003 23 18.003L15.998 18C16 18 16 22.997 16 22.997l7.002.003zM15 18.003A1 1 0 0 1 15.998 17h7.004c.551 0 .998.438.998 1.003v4.994A1 1 0 0 1 23.002 24h-7.004A.993.993 0 0 1 15 22.997v-4.994z"></path><path d="M19 20h1v2h-1z"></path><path fill-rule="nonzero" d="M22 14.5a2.5 2.5 0 0 0-5 0v3h1v-3a1.5 1.5 0 0 1 3 0v.5h1v-.5z"></path><g fill-rule="nonzero"><path d="M3 14.707A1 1 0 0 1 3.293 14L14.439 2.854a1.5 1.5 0 0 1 2.122 0l2.585 2.585a1.5 1.5 0 0 1 0 2.122L8 18.707a1 1 0 0 1-.707.293H4a1 1 0 0 1-1-1v-3.293zm1 0V18h3.293L18.439 6.854a.5.5 0 0 0 0-.708l-2.585-2.585a.5.5 0 0 0-.708 0L4 14.707z"></path><path d="M13.146 4.854l4 4 .708-.708-4-4zm-9 9l4 4 .708-.708-4-4z"></path><path d="M15.146 6.146l-9 9 .708.708 9-9z"></path></g></g></svg>
