<svg width="800px" height="800px" fill="none" version="1.1" viewBox="0 0 24 24" xmlns="http://www.w3.org/2000/svg">
 <path d="m15.746 2.7281c-5.1207-2.0689-10.949 0.40512-13.018 5.5258-2.0689 5.1207 0.40512 10.949 5.5258 13.018 5.1207 2.0689 10.949-0.40508 13.018-5.5258 2.0689-5.1207-0.40508-10.949-5.5258-13.018zm-1.3378 8.3035-1.2703-0.51325c-0.21854-0.08829-0.32785-0.13246-0.3683-0.22775-0.04045-0.09529 0.0037-0.20461 0.09201-0.42314l1.6595-4.1073c0.33362-0.82575 0.50047-1.2387 0.33474-1.3523-0.16582-0.11359-0.49058 0.19103-1.1403 0.8003l-4.7426 4.4469c-1.0274 0.96338-1.541 1.445-1.4405 1.9835 0.10054 0.53837 0.75347 0.80216 2.0594 1.3298l1.2703 0.51325c0.21854 0.08829 0.32785 0.13246 0.3683 0.22775 0.04045 0.09529-0.0037 0.20461-0.09201 0.42314l-1.6595 4.1073c-0.33365 0.82582-0.50047 1.2387-0.33475 1.3523 0.16582 0.1136 0.49059-0.19104 1.1403-0.80025l4.7425-4.4469c1.0275-0.96346 1.5411-1.4451 1.4406-1.9836-0.10057-0.53838-0.75352-0.80218-2.0594-1.3298z" clip-rule="evenodd" fill="#000" fill-rule="evenodd"/>
</svg>
