<svg width="48" height="48" version="1.1" viewBox="0 0 12.7 12.7" xmlns="http://www.w3.org/2000/svg" style="fill:#fff">
 <g transform="translate(-65.155 3.5898)">
  <path d="m9.525-2.1868v0.84667h1.7296l-5.0105 5.0105-1.905-1.905-2.7335 2.7335 0.5987 0.5987 2.1348-2.1348 1.905 1.905 5.6092-5.6091v1.7296h0.84667v-3.175z" stroke-width=".026458"/>
  <path d="m0.84667-2.1868h-0.84667v8.89h12.7v-0.72571h-11.853z" stroke-width=".024496"/>
  <text transform="scale(1.3395 .74654)" x="-0.080612935" y="17.01178" font-family="'Droid Naskh Shift Alt'" font-size="9.172px" stroke-width=".2293" style="line-height:1.25" xml:space="preserve"><tspan x="-0.080612935" y="17.01178" font-family="Carlito" font-weight="bold" stroke-width=".2293">TX</tspan></text>
 </g>
 <path d="m-42.002-28.128v0.84667h1.7296l-5.0105 5.0105-1.905-1.905-2.7335 2.7335 0.5987 0.5987 2.1348-2.1348 1.905 1.905 5.6092-5.6091v1.7296h0.84667v-3.175z" stroke-width=".026458"/>
 <path d="m-50.68-28.128h-0.84667v8.89h12.7v-0.72571h-11.853z" stroke-width=".024496"/>
 <text transform="scale(1.3395 .74654)" x="-38.547447" y="-17.737301" font-family="'Droid Naskh Shift Alt'" font-size="9.172px" stroke-width=".2293" style="line-height:1.25" xml:space="preserve"><tspan x="-38.547447" y="-17.737301" font-family="Carlito" font-weight="bold" stroke-width=".2293">TX</tspan></text>
 <path d="m9.992 0v0.72229h1.4756l-4.2744 4.2745-1.6252-1.6252-2.332 2.3319 0.51075 0.51075 1.8212-1.8212 1.6252 1.6252 4.7852-4.7852v1.4756h0.72229v-2.7086z" stroke-width=".022572"/>
 <path d="m0.722 0h-0.72229v7.5841h12.7v-0.61911h-11.978z" stroke-width=".020897"/>
 <path transform="scale(1.4503 .68952)" d="m4.0463 12.925v0.88523h-1.4809v4.6081h-1.0838v-4.6081h-1.4809v-0.88523zm1.6712 2.6681-1.5099-2.6681h1.0921q0.10755 0 0.15305 0.02896 0.049639 0.02482 0.091005 0.091l0.99278 1.907 0.066185-0.11996 0.86868-1.7663q0.045502-0.07032 0.095141-0.10341 0.049639-0.03723 0.11996-0.03723h1.0383l-1.5264 2.6185 1.5595 2.8749h-1.0796q-0.11169 0-0.17787-0.05377-0.062049-0.05791-0.10755-0.12823l-0.99692-1.9814q-0.00827 0.02068-0.020683 0.04137-0.01241 0.01655-0.020683 0.03723l-0.92659 1.8987q-0.045502 0.07032-0.10341 0.12823-0.057912 0.05791-0.15305 0.05791h-1.0217z" stroke-width=".21179" aria-label="TX"/>
</svg>
