<svg
   style="width: 46px; height: 46px"
   viewBox="-1.6 -1.6 19.2 19.2"
   xmlns="http://www.w3.org/2000/svg">
  <path
     fill-rule="evenodd"
     d="M 15,2 C 15,1.4477153 14.552285,1 14,1 H 2 C 1.4477153,1 1,1.4477153 1,2 v 12 c 0,0.552285 0.4477153,1 1,1 h 12 c 0.552285,0 1,-0.447715 1,-1 z M 0,2 C 0,0.8954305 0.8954305,0 2,0 h 12 c 1.104569,0 2,0.8954305 2,2 v 12 c 0,1.104569 -0.895431,2 -2,2 H 2 C 0.8954305,16 0,15.104569 0,14 Z"
     id="path2"
     style="fill:#000000"
     sodipodi:nodetypes="ssssssssssssssssss" />
  <g
     id="g611"
     transform="translate(0.2050748,-0.8829888)">
    <path
       d="m 7.2959375,11.933818 -2.146,-2.1469999 c -0.472,-0.4719998 -1.18,0.2359999 -0.708,0.7079999 l 3,3 c 0.195364,0.195858 0.512636,0.195858 0.708,0 l 3.0000005,-3 c 0.472,-0.472 -0.236,-1.1799997 -0.708,-0.7079999 L 8.2959375,11.933818 c -0.431103,0.417289 -0.523896,0.423024 -1,0 z"
       style="fill:#000000;fill-rule:evenodd"
       id="path566" />
    <path
       d="m 7.2939123,5.8321596 -2.146,2.147 c -0.4719998,0.472 -1.1799998,-0.236 -0.708,-0.708 l 3,-3 c 0.1953639,-0.195858 0.5126361,-0.195858 0.708,0 l 2.9999997,3 c 0.472,0.472 -0.236,1.18 -0.708,0.708 l -2.1459997,-2.147 c -0.4311027,-0.417289 -0.5238956,-0.423024 -1,0 z"
       style="fill:#000000;fill-rule:evenodd"
       id="path566-6" />
  </g>
</svg>
