<svg
   aria-hidden="true"
   width="46.08"
   height="46.08"
   viewBox="0 0 32 32"
   xmlns="http://www.w3.org/2000/svg">
  <path
     d="M 3.2758709,20.241377 11.758622,28.72413 28.72413,11.758622 20.241377,3.2758709 Z m 2.1206881,0 1.5905161,-1.590515 3.7112049,3.711203 1.060342,-1.060345 -3.7112027,-3.711204 1.0603441,-1.060344 2.1206876,2.12069 1.060346,-1.060346 -2.120689,-2.120688 1.060343,-1.060344 3.711203,3.711203 L 16,17.060346 l -3.711203,-3.711208 1.060341,-1.060341 2.12069,2.120687 1.060344,-1.060346 -2.120688,-2.120687 1.060344,-1.060343 3.711204,3.711205 1.060345,-1.060345 -3.711205,-3.7112046 1.060344,-1.0603441 2.120687,2.1206887 1.060346,-1.0603446 -2.120687,-2.1206883 1.590515,-1.5905161 6.362065,6.362063 -14.84482,14.84482 z"
     style="stroke-width:0.749776" />
</svg>
