<svg style="height:46px;width:46px" version="1.1" viewBox="-1.6 -1.6 19.2 19.2" xmlns="http://www.w3.org/2000/svg">
 <path d="m15 2c0-0.55228-0.44772-1-1-1h-12c-0.55228 0-1 0.44772-1 1v12c0 0.55228 0.44772 1 1 1h12c0.55228 0 1-0.44772 1-1zm-15 0c0-1.1046 0.89543-2 2-2h12c1.1046 0 2 0.89543 2 2v12c0 1.1046-0.89543 2-2 2h-12c-1.1046 0-2-0.89543-2-2z" fill-rule="evenodd"/>
 <path d="m13.291 7.7876c-1.0729-2.491-3.0911-4.0365-5.2687-4.0365-2.1776 0-4.1958 1.5456-5.2687 4.0365a0.53112 0.53112 0 0 0 0 0.4249c1.0729 2.491 3.0911 4.0365 5.2687 4.0365 2.1776 0 4.1959-1.5456 5.2687-4.0365a0.53112 0.53112 0 0 0 0-0.4249zm-5.2687 3.3992c-1.6836 0-3.277-1.2163-4.1958-3.1867 0.91884-1.9705 2.5122-3.1867 4.1958-3.1867 1.6837 0 3.277 1.2163 4.1959 3.1867-0.91884 1.9705-2.5122 3.1867-4.1959 3.1867zm0-5.3112a2.1245 2.1245 0 1 0 2.1245 2.1245 2.1245 2.1245 0 0 0-2.1245-2.1245zm0 3.1867a1.0622 1.0622 0 1 1 1.0622-1.0622 1.0622 1.0622 0 0 1-1.0622 1.0622z" stroke-width=".53112"/>
 <path d="m12.757 3.0055c-0.11087 0.0051358-0.22696 0.051177-0.33008 0.1543l-4.9883 4.9902c-0.061946 0.061947-0.086644 0.12038-0.097656 0.17773l-4.8184 4.8164c-0.1111 0.1111-0.1066 0.2109-0.10742 0.31445-3.5e-4 0.27663 0.22337 0.50035 0.5 0.5 0 0 0.18415 0.022881 0.33008-0.12305l4.9746-4.9727c0.06758-0.06758 0.10951-0.13979 0.13281-0.21289l4.7832-4.7832c0.36828-0.36828 0.017071-0.87967-0.37891-0.86133z" fill-rule="evenodd"/>
</svg>
