<svg width="493px" height="512px" clip-rule="evenodd" fill-rule="evenodd" image-rendering="optimizeQuality" shape-rendering="geometricPrecision" text-rendering="geometricPrecision" version="1.1" viewBox="0 0 493 511.77" xmlns="http://www.w3.org/2000/svg">
 <path d="m33.11 458.2 104.5-79.1c3.09-3 7.08-4.47 11.08-4.45l302.6-0.08c2.67 0 5.09-1.08 6.78-2.77 1.74-1.81 2.84-4.24 2.84-6.87v-323.2c0-2.59-1.12-5-2.86-6.74-1.78-1.78-4.2-2.9-6.76-2.9h-409.56c-2.54 0-4.94 1.14-6.72 2.92s-2.92 4.18-2.92 6.72c0 793.72 1.02 39.329 1.02 416.47zm90.6-229.77c10.9 0 19.74 8.85 19.74 19.74s-8.84 19.73-19.74 19.73c-10.89 0-19.73-8.84-19.73-19.73s8.84-19.74 19.73-19.74zm0-101.14c10.9 0 19.74 8.85 19.74 19.74s-8.84 19.74-19.74 19.74c-10.89 0-19.73-8.85-19.73-19.74s8.84-19.74 19.73-19.74zm61.72 138.89c-9.95 0-18.02-8.07-18.02-18.01 0-9.95 8.07-18.02 18.02-18.02h185.56c9.95 0 18.01 8.07 18.01 18.02 0 9.94-8.06 18.01-18.01 18.01zm0-101.13c-9.95 0-18.02-8.07-18.02-18.02 0-9.94 8.07-18.01 18.02-18.01h185.56c9.95 0 18.01 8.07 18.01 18.01 0 9.95-8.06 18.02-18.01 18.02zm-30.38 241.61-125.97 99.69c-2.96 3.32-7.24 5.42-12.01 5.42-8.85 0-17.07-7.1228-17.07-15.963v-454.08c0-11.4 4.77-21.88 12.31-29.42s18.02-12.31 29.42-12.31h409.56c11.4 0 21.9 4.74 29.45 12.29 7.5 7.51 12.26 17.96 12.26 29.44v323.2c0 11.48-4.7 21.95-12.24 29.49-7.61 7.54-18.05 12.24-29.47 12.24z" fill-rule="nonzero"/>
</svg>
