<svg width="493px" height="512px" clip-rule="evenodd" fill-rule="evenodd" image-rendering="optimizeQuality" shape-rendering="geometricPrecision" text-rendering="geometricPrecision" version="1.1" viewBox="0 0 493 511.77" xmlns="http://www.w3.org/2000/svg">
 <defs>
  <clipPath id="clipPath1">
   <path d="m123.71 228.39c10.9 0 19.74 8.846 19.74 19.731 0 10.885-8.84 19.721-19.74 19.721-10.89 0-19.73-8.836-19.73-19.721 0-10.885 8.84-19.731 19.73-19.731zm0-101.09c10.9 0 19.74 8.846 19.74 19.731s-8.84 19.731-19.74 19.731c-10.89 0-19.73-8.846-19.73-19.731s8.84-19.731 19.73-19.731zm61.72 138.83c-9.95 0-18.02-8.0664-18.02-18.002 0-9.9455 8.07-18.012 18.02-18.012h185.56c9.95 0 18.01 8.0664 18.01 18.012 0 9.9355-8.06 18.002-18.01 18.002zm0-101.08c-9.95 0-18.02-8.0664-18.02-18.012 0-9.9355 8.07-18.002 18.02-18.002h185.56c9.95 0 18.01 8.0664 18.01 18.002 0 9.9455-8.06 18.012-18.01 18.012z" display="none" fill="#fff" fill-rule="nonzero"/>
   <path class="powerclip" d="m-5-5h503v521.77h-503zm128.71 233.39c-10.89 0-19.73 8.846-19.73 19.731 0 10.885 8.84 19.721 19.73 19.721 10.9 0 19.74-8.836 19.74-19.721 0-10.885-8.84-19.731-19.74-19.731zm0-101.09c-10.89 0-19.73 8.846-19.73 19.731s8.84 19.731 19.73 19.731c10.9 0 19.74-8.846 19.74-19.731s-8.84-19.731-19.74-19.731zm61.72 138.83h185.56c9.95 0 18.01-8.0664 18.01-18.002 0-9.9455-8.06-18.012-18.01-18.012h-185.56c-9.95 0-18.02 8.0664-18.02 18.012 0 9.9355 8.07 18.002 18.02 18.002zm0-101.08h185.56c9.95 0 18.01-8.0664 18.01-18.012 0-9.9355-8.06-18.002-18.01-18.002h-185.56c-9.95 0-18.02 8.0664-18.02 18.002 0 9.9455 8.07 18.012 18.02 18.012z" fill="#fff" fill-rule="nonzero"/>
  </clipPath>
 </defs>
 <path d="m155.05 406.66-125.97 99.69c-2.96 3.32-7.24 5.42-12.01 5.42-8.85 0-17.07-7.1228-17.07-15.963v-454.08c0-11.4 4.77-21.88 12.31-29.42s18.02-12.31 29.42-12.31h409.56c11.4 0 21.9 4.74 29.45 12.29 7.5 7.51 12.26 17.96 12.26 29.44v323.2c0 11.48-4.7 21.95-12.24 29.49-7.61 7.54-18.05 12.24-29.47 12.24z" clip-path="url(#clipPath1)" fill-rule="nonzero"/>
</svg>
