<svg width="493px" height="512px" clip-rule="evenodd" fill-rule="evenodd" image-rendering="optimizeQuality" shape-rendering="geometricPrecision" text-rendering="geometricPrecision" version="1.1" viewBox="0 0 493 511.77" xmlns="http://www.w3.org/2000/svg">
 <path d="m129.11 458.2 82.5-79.1c3.09-3 7.08-4.47 11.08-4.45l228.6-0.08c2.67 0 5.09-1.08 6.78-2.77 1.74-1.81 2.84-4.24 2.84-6.87v-323.2c0-2.59-1.12-5-2.86-6.74-1.78-1.78-4.2-2.9-6.76-2.9h-409.56c-2.54 0-4.94 1.14-6.72 2.92s-2.92 4.18-2.92 6.72v323.2c0 2.57 1.12 5.02 2.88 6.78l0.53 0.55c1.68 1.42 3.88 2.31 6.23 2.31h71.34c8.85 0 16.04 7.2 16.04 16.04v67.59zm-5.4-229.77c10.9 0 19.74 8.85 19.74 19.74s-8.84 19.73-19.74 19.73c-10.89 0-19.73-8.84-19.73-19.73s8.84-19.74 19.73-19.74zm0-101.14c10.9 0 19.74 8.85 19.74 19.74s-8.84 19.74-19.74 19.74c-10.89 0-19.73-8.85-19.73-19.74s8.84-19.74 19.73-19.74zm61.72 138.89c-9.95 0-18.02-8.07-18.02-18.01 0-9.95 8.07-18.02 18.02-18.02h185.56c9.95 0 18.01 8.07 18.01 18.02 0 9.94-8.06 18.01-18.01 18.01h-185.56zm0-101.13c-9.95 0-18.02-8.07-18.02-18.02 0-9.94 8.07-18.01 18.02-18.01h185.56c9.95 0 18.01 8.07 18.01 18.01 0 9.95-8.06 18.02-18.01 18.02h-185.56zm43.62 241.61-103.97 99.69c-2.96 3.32-7.24 5.42-12.01 5.42-8.85 0-16.05-7.2-16.05-16.04v-89.07h-55.29c-10.83 0-20.76-4.28-28.19-11.12l-1.26-1.14c-7.56-7.56-12.28-18.05-12.28-29.47v-323.2c0-11.4 4.77-21.88 12.31-29.42s18.02-12.31 29.42-12.31h409.56c11.4 0 21.9 4.74 29.45 12.29 7.5 7.51 12.26 17.96 12.26 29.44v323.2c0 11.48-4.7 21.95-12.24 29.49-7.61 7.54-18.05 12.24-29.47 12.24h-222.24z" fill-rule="nonzero"/>
</svg>
