<svg aria-hidden="true" width="46.08" height="46.08" viewBox="-51.2 -51.2 614.4 614.4"><g id="g930" transform="matrix(21.128963,0,0,21.128963,-29.235597,-50.369964)"><path clip-rule="evenodd" d="m 4.5,5 a 1.5,1.5 0 1 0 0,3 1.5,1.5 0 0 0 0,-3 z M 2,6.5 A 2.5,2.5 0 0 1 6.95,6 H 24 V 7 H 6.95 A 2.5,2.5 0 0 1 2,6.5 Z M 4.5,15 a 1.5,1.5 0 1 0 0,3 1.5,1.5 0 0 0 0,-3 z M 2,16.5 A 2.5,2.5 0 0 1 6.95,16 h 13.1 a 2.5,2.5 0 1 1 0,1 H 6.95 A 2.5,2.5 0 0 1 2,16.5 Z M 22.5,15 a 1.5,1.5 0 1 0 0,3 1.5,1.5 0 0 0 0,-3 z m -18,6 a 1.5,1.5 0 1 0 0,3 1.5,1.5 0 0 0 0,-3 z M 2,22.5 A 2.5,2.5 0 0 1 6.95,22 H 24 v 1 H 6.95 A 2.5,2.5 0 0 1 2,22.5 Z" id="path908" /><path clip-rule="evenodd" d="M 22.4,8.94 21.01,9.57 20.6,8.66 21.99,8.03 Z m -4,1.8 -1.39,0.63 -0.41,-0.91 1.39,-0.63 z m -4,1.8 -1.4,0.63 -0.4,-0.91 1.39,-0.63 z m -4,1.8 L 9,14.97 8.6,14.06 9.99,13.43 Z" id="path910" /></g></svg>
