<svg xmlns="http://www.w3.org/2000/svg" viewBox="0 0 28 28" width="28" height="28" fill="none"><path fill="currentColor" fill-rule="evenodd" clip-rule="evenodd" d="M4.5 5a1.5 1.5 0 1 0 0 3 1.5 1.5 0 0 0 0-3zM2 6.5A2.5 2.5 0 0 1 6.95 6H24v1H6.95A2.5 2.5 0 0 1 2 6.5zM4.5 15a1.5 1.5 0 1 0 0 3 1.5 1.5 0 0 0 0-3zM2 16.5a2.5 2.5 0 0 1 4.95-.5h13.1a2.5 2.5 0 1 1 0 1H6.95A2.5 2.5 0 0 1 2 16.5zM22.5 15a1.5 1.5 0 1 0 0 3 1.5 1.5 0 0 0 0-3zm-18 6a1.5 1.5 0 1 0 0 3 1.5 1.5 0 0 0 0-3zM2 22.5a2.5 2.5 0 0 1 4.95-.5H24v1H6.95A2.5 2.5 0 0 1 2 22.5z"></path><path fill="currentColor" fill-rule="evenodd" clip-rule="evenodd" d="M22.4 8.94l-1.39.63-.41-.91 1.39-.63.41.91zm-4 1.8l-1.39.63-.41-.91 1.39-.63.41.91zm-4 1.8l-1.4.63-.4-.91 1.39-.63.41.91zm-4 1.8l-1.4.63-.4-.91 1.39-.63.41.91z"></path></svg>
