<svg viewBox="0 0 24 24"><rect x="4.5" y="13.5" width="15" height="1" rx="0.5"></rect><ellipse cx="6" cy="14" rx="1.5" ry="1.5"></ellipse><path d="M8.314036947998046,12.235949340820312L10.985912947998047,12.235949340820312L10.985912947998047,11.517199340820312L10.151922947998047,11.517199340820312L10.151922947998047,7.735949340820312L9.497632947998047,7.735949340820312C9.214422947998047,7.917589340820312,8.915602947998046,8.030869340820313,8.464427947998047,8.108999340820313L8.464427947998047,8.661729340820312L9.274972947998046,8.661729340820312L9.274972947998046,11.517199340820312L8.314036947998046,11.517199340820312L8.314036947998046,12.235949340820312ZM11.581612947998046,12.235949340820312L14.556222947998048,12.235949340820312L14.556222947998048,11.493759340820311L13.597242947998048,11.493759340820311C13.386302947998047,11.493759340820311,13.093332947998046,11.517199340820312,12.864822947998046,11.546499340820311C13.675362947998046,10.724229340820312,14.347242947998048,9.831649340820313,14.347242947998048,9.001579340820312C14.347242947998048,8.151969340820312,13.788642947998046,7.610949340820312,12.948802947998047,7.610949340820312C12.343332947998046,7.610949340820312,11.946852947998046,7.845329340820312,11.532782947998047,8.290639340820313L12.024972947998048,8.778919340820313C12.247632947998046,8.525009340820313,12.511302947998047,8.308219340820312,12.835522947998047,8.308219340820312C13.261302947998047,8.308219340820312,13.501532947998047,8.593369340820313,13.501532947998047,9.044539340820313C13.501532947998047,9.757429340820313,12.792552947998047,10.618759340820311,11.581612947998046,11.726179340820313L11.581612947998046,12.235949340820312ZM16.460522947998047,12.360949340820312C17.312082947998046,12.360949340820312,18.026902947998046,11.894149340820313,18.026902947998046,11.048449340820312C18.026902947998046,10.431259340820311,17.642162947998045,10.050399340820313,17.144112947998046,9.911729340820312L17.144112947998046,9.882429340820313C17.612862947998046,9.696889340820313,17.882402947998045,9.331649340820313,17.882402947998045,8.823839340820312C17.882402947998045,8.032829340820312,17.300362947998046,7.610949340820312,16.44294294799805,7.610949340820312C15.921462947998046,7.610949340820312,15.495682947998047,7.821889340820313,15.110912947998047,8.151969340820312L15.565992947998048,8.722279340820313C15.825752947998048,8.460559340820312,16.083572947998046,8.308219340820312,16.401922947998045,8.308219340820312C16.77888294799805,8.308219340820312,16.99568294799805,8.525009340820313,16.99568294799805,8.892199340820312C16.99568294799805,9.319929340820313,16.730052947998047,9.610949340820312,15.921462947998046,9.610949340820312L15.921462947998046,10.247669340820313C16.88044294799805,10.247669340820313,17.138252947998048,10.530869340820313,17.138252947998048,10.991809340820312C17.138252947998048,11.407829340820314,16.833572947998046,11.642199340820312,16.38239294799805,11.642199340820312C15.974192947998047,11.642199340820312,15.657782947998047,11.433219340820312,15.392162947998047,11.161729340820312L14.978102947998046,11.743759340820311C15.290602947998046,12.097279340820313,15.765212947998048,12.360949340820312,16.460522947998047,12.360949340820312Z"></path></svg>
