<svg width="800px" height="800px" version="1.1" viewBox="0 0 32 32" xmlns="http://www.w3.org/2000/svg">
 <g fill="none" fill-rule="evenodd">
  <g id="Icon-Set" transform="translate(-360 -255)" fill="#000">
   <path d="m390 272.44c0 1.463-1.527 3-3 3h-8l-3 7.28-3-7.28h-8c-1.473 0-3-1.537-3-3v-12.44c0-1.463 1.527-3 3-3h22c1.473 0 3 1.537 3 3zm-3.333-17.44h-21.334c-2.945 0-5.333 2.371-5.333 5.297v12.33c0 2.924 2.055 4.813 5 4.813h6.639l4.361 9.561 4.361-9.561h6.639c2.945 0 5-1.889 5-4.813v-12.33c0-2.926-2.388-5.297-5.333-5.297z"/>
  </g>
 </g>
 <path transform="matrix(.033417 0 0 .046434 1.373 -2.9096)" d="m258.93 248.38h-37.5q-2.0833-30.469-40.625-30.469-15.365 0-24.479 6.5104-9.1146 6.5104-9.1146 17.448 0 10.677 7.5521 16.146 7.8125 5.2083 29.167 9.375l30.469 5.7292q27.083 5.2083 39.063 17.969 12.24 12.76 12.24 35.677 0 29.688-21.094 46.354-20.833 16.667-58.594 16.667-37.24 0-58.073-16.406-20.573-16.667-22.396-47.917h38.802q1.0417 15.625 12.24 23.958 11.198 8.3334 31.51 8.3334 18.229 0 28.646-7.0313 10.677-7.0313 10.677-19.271 0-11.719-8.3333-17.969-8.3334-6.5104-28.385-10.156l-27.083-5.4688q-29.688-5.7292-42.188-17.448-12.5-11.979-12.5-34.635 0-28.385 19.271-44.01 19.531-15.885 54.427-15.885 42.448 0 62.5 22.135 13.802 15.365 13.802 40.365zm76.823 51.302v50.521h105.47v33.333h-145.31v-194.27h140.63v33.333h-100.78v43.75h93.229v33.333zm178.39-110.42v160.94h92.969v33.333h-133.07v-194.27zm162.76 0v160.94h92.969v33.333h-133.07v-194.27z" style="white-space:pre" aria-label="SELL"/>
</svg>
