<svg width="800px" height="800px" version="1.1" viewBox="0 0 32 32" xmlns="http://www.w3.org/2000/svg">
 <defs>
  <clipPath id="clipPath4">
   <path d="m10.026 8.6238h-1.2531q-0.06962-1.4148-1.3576-1.4148-0.51344 0-0.81803 0.30231-0.30458 0.30231-0.30458 0.81019 0 0.49579 0.25237 0.74972 0.26107 0.24185 0.97467 0.43532l1.0182 0.26603q0.90505 0.24185 1.3054 0.83437 0.40901 0.59252 0.40901 1.6566 0 1.3785-0.7049 2.1524-0.69619 0.77391-1.958 0.77391-1.2444 0-1.9406-0.76182-0.68749-0.77391-0.74841-2.225h1.2967q0.03481 0.72554 0.40901 1.1125t1.053 0.38696q0.60917 0 0.95727-0.32649 0.3568-0.32649 0.3568-0.89483 0-0.54416-0.27848-0.83437-0.27848-0.30231-0.94856-0.4716l-0.90505-0.25394q-0.99208-0.26603-1.4098-0.81019-0.41772-0.55625-0.41772-1.6083 0-1.3181 0.64398-2.0436 0.65268-0.73763 1.8188-0.73763 1.4185 0 2.0886 1.0278 0.46123 0.71345 0.46123 1.8743zm2.5672 2.3822v2.3459h3.5245v1.5478h-4.8559v-9.0209h4.6993v1.5478h-3.3678v2.0315h3.1155v1.5478zm5.9612-5.1271v7.4731h3.1068v1.5478h-4.4469v-9.0209zm5.439 0v7.4731h3.1068v1.5478h-4.4469v-9.0209z" display="none" stroke-width=".039392" style="white-space:pre" aria-label="SELL"/>
   <path class="powerclip" d="m-5-5h42v42.001h-42zm15.026 13.624q0-1.1609-0.46123-1.8743-0.67009-1.0278-2.0886-1.0278-1.1661 0-1.8188 0.73763-0.64398 0.72554-0.64398 2.0436 0 1.052 0.41772 1.6083 0.41772 0.54416 1.4098 0.81019l0.90505 0.25394q0.67009 0.16929 0.94856 0.4716 0.27848 0.29022 0.27848 0.83437 0 0.56834-0.3568 0.89483-0.3481 0.32649-0.95727 0.32649-0.67879 0-1.053-0.38696-0.3742-0.38695-0.40901-1.1125h-1.2967q0.060917 1.4511 0.74841 2.225 0.69619 0.76182 1.9406 0.76182 1.2619 0 1.958-0.77391 0.7049-0.77391 0.7049-2.1524 0-1.0641-0.40901-1.6566-0.40031-0.59252-1.3054-0.83437l-1.0182-0.26603q-0.7136-0.19348-0.97467-0.43532-0.25237-0.25394-0.25237-0.74972 0-0.50788 0.30458-0.81019t0.81803-0.30231q1.288 0 1.3576 1.4148zm2.5672 2.3822h3.1155v-1.5478h-3.1155v-2.0315h3.3678v-1.5478h-4.6993v9.0209h4.8559v-1.5478h-3.5245zm5.9612-5.1271h-1.3402v9.0209h4.4469v-1.5478h-3.1068zm5.439 0h-1.3402v9.0209h4.4469v-1.5478h-3.1068z" stroke-width=".039392" style="white-space:pre"/>
  </clipPath>
 </defs>
 <path d="m26.667 0h-21.334c-2.945 0-5.333 2.371-5.333 5.297v12.33c0 2.924 2.055 4.813 5 4.813h6.639l4.361 9.561 4.361-9.561h6.639c2.945 0 5-1.889 5-4.813v-12.33c0-2.926-2.388-5.297-5.333-5.297z" clip-path="url(#clipPath4)" fill-rule="evenodd"/>
</svg>
