<svg style="width: 46px; height: 46px" viewBox="-51.2 -51.2 614.4 614.4" xmlns="http://www.w3.org/2000/svg">
 <path d="m65.845 55.275a31.693 31.693 0 1 0 0 63.387 31.693 31.693 0 0 0 0-63.387zm-52.822 31.693a52.822 52.822 0 0 1 104.59-10.564h360.25v21.129h-360.25a52.822 52.822 0 0 1-104.59-10.564zm52.822 179.6a31.693 31.693 0 1 0 0 63.387 31.693 31.693 0 0 0 0-63.387zm-52.822 31.693a52.822 52.822 0 0 1 104.59-10.564h276.79a52.822 52.822 0 1 1 0 21.129h-276.79a52.822 52.822 0 0 1-104.59-10.564zm433.14-31.693a31.693 31.693 0 1 0 0 63.387 31.693 31.693 0 0 0 0-63.387zm-380.32 126.77a31.693 31.693 0 1 0 0 63.387 31.693 31.693 0 0 0 0-63.387zm-52.822 31.693a52.822 52.822 0 0 1 104.59-10.564h360.25v21.129h-360.25a52.822 52.822 0 0 1-104.59-10.564z" clip-rule="evenodd" stroke-width="21.129"/>
</svg>
