<svg
   style="width: 46px; height: 46px"
   viewBox="-1.6 -1.6 19.2 19.2"
   xmlns="http://www.w3.org/2000/svg">
  <path
     fill-rule="evenodd"
     d="M 15,2 C 15,1.4477153 14.552285,1 14,1 H 2 C 1.4477153,1 1,1.4477153 1,2 v 12 c 0,0.552285 0.4477153,1 1,1 h 12 c 0.552285,0 1,-0.447715 1,-1 z M 0,2 C 0,0.8954305 0.8954305,0 2,0 h 12 c 1.104569,0 2,0.8954305 2,2 v 12 c 0,1.104569 -0.895431,2 -2,2 H 2 C 0.8954305,16 0,15.104569 0,14 Z"
     id="path2"
     style="fill:#000000"
     sodipodi:nodetypes="ssssssssssssssssss" />
  <path
     d="m 7.4989873,7.7026182 -2.1460003,2.147 c -0.472,0.4719998 -1.18,-0.236 -0.708,-0.708 l 3.0000003,-3 c 0.1953639,-0.1958581 0.5126361,-0.1958581 0.708,0 l 2.9999997,3 c 0.472,0.472 -0.236,1.1799998 -0.708,0.708 l -2.1459997,-2.147 c -0.4311027,-0.417289 -0.5238956,-0.423024 -1,0 z"
     style="font-size:34.56px;fill:#000000;fill-rule:evenodd"
     id="path566-6-3" />
</svg>
