<svg style="height:46px;width:46px" version="1.1" viewBox="-1.6 -1.6 19.2 19.2" xmlns="http://www.w3.org/2000/svg">
 <path d="m15 2c0-0.55228-0.44772-1-1-1h-12c-0.55228 0-1 0.44772-1 1v12c0 0.55228 0.44772 1 1 1h12c0.55228 0 1-0.44772 1-1zm-15 0c0-1.1046 0.89543-2 2-2h12c1.1046 0 2 0.89543 2 2v12c0 1.1046-0.89543 2-2 2h-12c-1.1046 0-2-0.89543-2-2z" fill-rule="evenodd"/>
 <path d="m13.291 7.7876c-1.0729-2.491-3.0911-4.0365-5.2687-4.0365-2.1776 0-4.1958 1.5456-5.2687 4.0365a0.53112 0.53112 0 0 0 0 0.4249c1.0729 2.491 3.0911 4.0365 5.2687 4.0365 2.1776 0 4.1959-1.5456 5.2687-4.0365a0.53112 0.53112 0 0 0 0-0.4249zm-5.2687 3.3992c-1.6836 0-3.277-1.2163-4.1958-3.1867 0.91884-1.9705 2.5122-3.1867 4.1958-3.1867 1.6837 0 3.277 1.2163 4.1959 3.1867-0.91884 1.9705-2.5122 3.1867-4.1959 3.1867zm0-5.3112a2.1245 2.1245 0 1 0 2.1245 2.1245 2.1245 2.1245 0 0 0-2.1245-2.1245zm0 3.1867a1.0622 1.0622 0 1 1 1.0622-1.0622 1.0622 1.0622 0 0 1-1.0622 1.0622z" stroke-width=".53112"/>
</svg>
