<svg xmlns="http://www.w3.org/2000/svg" width="45" height="45"><path fill="currentcolor" d="m21.5 10a3.5 3.5 0 0 0-3.5 3.5v3h1v-3a2.5 2.5 0 0 1 2.5-2.5h9a2.5 2.5 0 0 1 2.5 2.5v3a2.5 2.5 0 0 1-2.5 2.5h-1v1h1a3.5 3.5 0 0 0 3.5-3.5v-3a3.5 3.5 0 0 0-3.5-3.5zm-7 6a4.5 4.5 0 0 0-4.5 4.5v13.2l4.7-4.7h10.8a4.5 4.5 0 0 0 4.5-4.5v-4a4.5 4.5 0 0 0-4.5-4.5zm0 1h11a3.5 3.5 0 0 1 3.5 3.5v4a3.5 3.5 0 0 1-3.5 3.5H14.3L11 31.3V20.5a3.5 3.5 0 0 1 3.5-3.5zm15 5v1h1a2.5 2.5 0 0 1 2.5 2.5v8.8L29.7 31h-8.2a2.5 2.5 0 0 1-2.5-2.5h-1a3.5 3.5 0 0 0 3.5 3.5h7.8l4.7 4.7V25.5a3.5 3.5 0 0 0-3.5-3.5z"></path></svg>
